<svg width="909" height="297" viewBox="0 0 909 297" fill="none" xmlns="http://www.w3.org/2000/svg">
<g filter="url(#filter0_d_138_79)">
<path d="M148.359 0.729492C159.189 0.729797 167.968 9.5098 167.968 20.3398C167.968 28.7805 162.635 35.9753 155.155 38.7393V128.021L218.287 64.8896C214.952 57.6459 216.269 48.7869 222.237 42.8184C229.895 35.1605 242.312 35.1604 249.97 42.8184C257.628 50.4765 257.627 62.8937 249.969 70.5518C244.001 76.5197 235.142 77.8357 227.899 74.501L157.969 144.43L227.898 214.358C235.142 211.023 244.001 212.34 249.969 218.309C257.627 225.967 257.627 238.383 249.969 246.041C242.311 253.699 229.895 253.699 222.237 246.041C216.269 240.072 214.952 231.213 218.287 223.97L155.155 160.838V250.119C162.635 252.883 167.968 260.08 167.968 268.521C167.968 279.35 159.189 288.13 148.359 288.13C137.529 288.13 128.749 279.351 128.749 268.521C128.749 260.08 134.081 252.883 141.562 250.119V160.838L78.4302 223.97C81.7652 231.214 80.4476 240.073 74.479 246.042C66.8211 253.699 54.4055 253.699 46.7476 246.042C39.0895 238.384 39.0888 225.967 46.7466 218.309C52.7152 212.34 61.575 211.022 68.8188 214.357L131.95 151.227H42.6685C39.9044 158.707 32.7078 164.04 24.2671 164.04C13.4376 164.04 4.65921 155.26 4.65869 144.431C4.65869 133.601 13.4373 124.821 24.2671 124.82C32.7081 124.82 39.9045 130.153 42.6685 137.634H131.951L68.8188 74.502C61.575 77.8371 52.7152 76.5193 46.7466 70.5508C39.0889 62.8927 39.0889 50.4764 46.7466 42.8184C54.4046 35.1605 66.8209 35.1606 74.479 42.8184C80.4475 48.787 81.7653 57.6468 78.4302 64.8906L141.562 128.022V38.7393C134.082 35.9753 128.749 28.7805 128.749 20.3398C128.749 9.50961 137.529 0.729492 148.359 0.729492Z" fill="url(#paint0_radial_138_79)"/>
<path d="M152.695 205.968L220.8 88.0071C217.604 74.3499 201.53 76.5053 193.892 79.2901L150.963 153.645C150.193 154.978 148.269 154.978 147.499 153.645L104.57 79.2901C86.5549 72.3165 79.1254 82.1958 77.6626 88.0071L145.767 205.968C147.307 208.634 151.156 208.634 152.695 205.968Z" fill="url(#paint1_radial_138_79)"/>
<path d="M307.781 126.131C307.412 122.673 305.854 119.981 303.109 118.054C300.39 116.127 296.853 115.163 292.497 115.163C289.435 115.163 286.809 115.625 284.618 116.549C282.427 117.473 280.751 118.727 279.589 120.31C278.428 121.894 277.834 123.702 277.808 125.735C277.808 127.424 278.19 128.889 278.956 130.13C279.748 131.371 280.817 132.427 282.163 133.298C283.509 134.142 285.001 134.855 286.637 135.436C288.274 136.017 289.924 136.505 291.587 136.901L299.189 138.801C302.251 139.514 305.194 140.478 308.019 141.692C310.87 142.906 313.417 144.437 315.661 146.285C317.931 148.133 319.726 150.363 321.046 152.976C322.365 155.59 323.025 158.652 323.025 162.163C323.025 166.914 321.811 171.098 319.383 174.714C316.954 178.304 313.443 181.115 308.85 183.148C304.284 185.154 298.754 186.157 292.26 186.157C285.951 186.157 280.474 185.181 275.828 183.227C271.208 181.274 267.592 178.423 264.979 174.675C262.392 170.926 260.993 166.36 260.782 160.975H275.234C275.445 163.799 276.316 166.148 277.847 168.023C279.378 169.897 281.371 171.296 283.826 172.22C286.307 173.144 289.079 173.606 292.141 173.606C295.335 173.606 298.133 173.13 300.535 172.18C302.964 171.203 304.864 169.857 306.237 168.141C307.61 166.399 308.309 164.367 308.336 162.044C308.309 159.932 307.689 158.19 306.475 156.817C305.26 155.418 303.558 154.257 301.367 153.333C299.202 152.383 296.668 151.538 293.765 150.799L284.539 148.423C277.86 146.707 272.581 144.107 268.701 140.623C264.847 137.112 262.92 132.453 262.92 126.646C262.92 121.868 264.213 117.684 266.8 114.094C269.413 110.504 272.964 107.719 277.451 105.739C281.939 103.733 287.02 102.73 292.695 102.73C298.45 102.73 303.492 103.733 307.821 105.739C312.176 107.719 315.595 110.478 318.076 114.015C320.557 117.526 321.837 121.564 321.917 126.131H307.781Z" fill="white"/>
<path d="M362.017 186.118C356.077 186.118 350.93 184.811 346.575 182.198C342.219 179.584 338.84 175.928 336.438 171.23C334.062 166.531 332.875 161.041 332.875 154.758C332.875 148.476 334.062 142.972 336.438 138.247C338.84 133.522 342.219 129.853 346.575 127.24C350.93 124.626 356.077 123.32 362.017 123.32C367.956 123.32 373.103 124.626 377.459 127.24C381.814 129.853 385.18 133.522 387.556 138.247C389.958 142.972 391.159 148.476 391.159 154.758C391.159 161.041 389.958 166.531 387.556 171.23C385.18 175.928 381.814 179.584 377.459 182.198C373.103 184.811 367.956 186.118 362.017 186.118ZM362.096 174.635C365.316 174.635 368.009 173.751 370.173 171.982C372.338 170.187 373.948 167.785 375.004 164.776C376.086 161.767 376.627 158.414 376.627 154.719C376.627 150.997 376.086 147.631 375.004 144.622C373.948 141.586 372.338 139.171 370.173 137.376C368.009 135.581 365.316 134.684 362.096 134.684C358.796 134.684 356.051 135.581 353.86 137.376C351.696 139.171 350.072 141.586 348.99 144.622C347.934 147.631 347.406 150.997 347.406 154.719C347.406 158.414 347.934 161.767 348.99 164.776C350.072 167.785 351.696 170.187 353.86 171.982C356.051 173.751 358.796 174.635 362.096 174.635Z" fill="white"/>
<path d="M429.853 186.118C423.782 186.118 418.568 184.785 414.213 182.119C409.884 179.452 406.545 175.77 404.195 171.071C401.873 166.346 400.711 160.909 400.711 154.758C400.711 148.581 401.899 143.13 404.275 138.405C406.65 133.654 410.003 129.958 414.332 127.319C418.687 124.653 423.835 123.32 429.774 123.32C434.71 123.32 439.079 124.23 442.88 126.052C446.707 127.847 449.756 130.394 452.026 133.694C454.297 136.967 455.59 140.794 455.907 145.176H442.207C441.652 142.246 440.333 139.804 438.247 137.851C436.188 135.871 433.43 134.881 429.972 134.881C427.042 134.881 424.468 135.673 422.251 137.257C420.034 138.815 418.305 141.058 417.064 143.988C415.85 146.918 415.242 150.429 415.242 154.521C415.242 158.665 415.85 162.229 417.064 165.211C418.278 168.168 419.981 170.451 422.172 172.061C424.389 173.645 426.989 174.437 429.972 174.437C432.084 174.437 433.971 174.041 435.634 173.249C437.323 172.431 438.736 171.256 439.871 169.725C441.006 168.194 441.784 166.333 442.207 164.142H455.907C455.564 168.445 454.297 172.259 452.106 175.585C449.915 178.885 446.932 181.472 443.157 183.346C439.382 185.194 434.948 186.118 429.853 186.118Z" fill="white"/>
<path d="M467.676 184.93V124.112H482.01V184.93H467.676ZM474.883 115.48C472.613 115.48 470.659 114.728 469.023 113.223C467.386 111.692 466.568 109.857 466.568 107.719C466.568 105.555 467.386 103.72 469.023 102.215C470.659 100.684 472.613 99.9189 474.883 99.9189C477.179 99.9189 479.133 100.684 480.743 102.215C482.379 103.72 483.198 105.555 483.198 107.719C483.198 109.857 482.379 111.692 480.743 113.223C479.133 114.728 477.179 115.48 474.883 115.48Z" fill="white"/>
<path d="M523.278 186.118C517.339 186.118 512.191 184.811 507.836 182.198C503.48 179.584 500.102 175.928 497.699 171.23C495.324 166.531 494.136 161.041 494.136 154.758C494.136 148.476 495.324 142.972 497.699 138.247C500.102 133.522 503.48 129.853 507.836 127.24C512.191 124.626 517.339 123.32 523.278 123.32C529.217 123.32 534.365 124.626 538.72 127.24C543.076 129.853 546.441 133.522 548.817 138.247C551.219 142.972 552.42 148.476 552.42 154.758C552.42 161.041 551.219 166.531 548.817 171.23C546.441 175.928 543.076 179.584 538.72 182.198C534.365 184.811 529.217 186.118 523.278 186.118ZM523.357 174.635C526.578 174.635 529.27 173.751 531.435 171.982C533.599 170.187 535.209 167.785 536.265 164.776C537.347 161.767 537.889 158.414 537.889 154.719C537.889 150.997 537.347 147.631 536.265 144.622C535.209 141.586 533.599 139.171 531.435 137.376C529.27 135.581 526.578 134.684 523.357 134.684C520.058 134.684 517.312 135.581 515.121 137.376C512.957 139.171 511.333 141.586 510.251 144.622C509.195 147.631 508.667 150.997 508.667 154.719C508.667 158.414 509.195 161.767 510.251 164.776C511.333 167.785 512.957 170.187 515.121 171.982C517.312 173.751 520.058 174.635 523.357 174.635Z" fill="white"/>
<path d="M569.535 103.839L590.639 167.666H591.471L612.535 103.839H628.69L600.102 184.93H581.968L553.42 103.839H569.535Z" fill="white"/>
<path d="M659.129 186.118C653.031 186.118 647.765 184.851 643.33 182.316C638.922 179.756 635.53 176.14 633.155 171.467C630.779 166.769 629.591 161.239 629.591 154.877C629.591 148.621 630.779 143.13 633.155 138.405C635.557 133.654 638.909 129.958 643.212 127.319C647.514 124.653 652.569 123.32 658.377 123.32C662.125 123.32 665.662 123.927 668.988 125.141C672.341 126.329 675.297 128.177 677.857 130.684C680.444 133.192 682.477 136.386 683.955 140.266C685.433 144.12 686.172 148.713 686.172 154.046V158.441H636.322V148.779H672.433C672.407 146.034 671.813 143.592 670.651 141.454C669.49 139.29 667.866 137.587 665.781 136.347C663.722 135.106 661.32 134.486 658.575 134.486C655.645 134.486 653.071 135.198 650.854 136.624C648.636 138.023 646.907 139.87 645.667 142.167C644.452 144.437 643.832 146.932 643.806 149.65V158.084C643.806 161.621 644.452 164.657 645.746 167.191C647.039 169.699 648.847 171.626 651.17 172.972C653.493 174.292 656.212 174.952 659.327 174.952C661.412 174.952 663.3 174.661 664.989 174.081C666.678 173.474 668.143 172.589 669.384 171.428C670.625 170.266 671.562 168.828 672.195 167.112L685.579 168.617C684.734 172.154 683.124 175.242 680.748 177.882C678.399 180.495 675.389 182.528 671.72 183.979C668.051 185.405 663.854 186.118 659.129 186.118Z" fill="white"/>
<path d="M698.298 184.93V124.112H712.196V134.248H712.83C713.939 130.737 715.839 128.032 718.532 126.131C721.25 124.204 724.352 123.241 727.836 123.241C728.628 123.241 729.513 123.28 730.489 123.359C731.492 123.412 732.324 123.504 732.984 123.636V136.822C732.377 136.61 731.413 136.426 730.093 136.267C728.8 136.083 727.546 135.99 726.332 135.99C723.719 135.99 721.369 136.558 719.284 137.693C717.225 138.801 715.602 140.346 714.414 142.325C713.226 144.305 712.632 146.588 712.632 149.175V184.93H698.298Z" fill="white"/>
<path d="M776.143 124.112V135.198H741.18V124.112H776.143ZM749.812 109.541H764.145V166.637C764.145 168.564 764.436 170.042 765.016 171.071C765.623 172.075 766.415 172.761 767.392 173.13C768.369 173.5 769.451 173.685 770.639 173.685C771.536 173.685 772.355 173.619 773.094 173.487C773.859 173.355 774.44 173.236 774.836 173.13L777.251 184.336C776.486 184.6 775.39 184.89 773.965 185.207C772.566 185.524 770.85 185.708 768.817 185.761C765.228 185.867 761.994 185.326 759.117 184.138C756.239 182.924 753.956 181.049 752.267 178.515C750.604 175.981 749.785 172.814 749.812 169.013V109.541Z" fill="white"/>
<path d="M814.401 186.118C808.304 186.118 803.038 184.851 798.603 182.316C794.195 179.756 790.803 176.14 788.427 171.467C786.051 166.769 784.863 161.239 784.863 154.877C784.863 148.621 786.051 143.13 788.427 138.405C790.829 133.654 794.181 129.958 798.484 127.319C802.787 124.653 807.842 123.32 813.649 123.32C817.397 123.32 820.935 123.927 824.261 125.141C827.613 126.329 830.569 128.177 833.13 130.684C835.717 133.192 837.749 136.386 839.228 140.266C840.706 144.12 841.445 148.713 841.445 154.046V158.441H791.595V148.779H827.705C827.679 146.034 827.085 143.592 825.924 141.454C824.762 139.29 823.139 137.587 821.053 136.347C818.994 135.106 816.592 134.486 813.847 134.486C810.917 134.486 808.343 135.198 806.126 136.624C803.909 138.023 802.18 139.87 800.939 142.167C799.725 144.437 799.104 146.932 799.078 149.65V158.084C799.078 161.621 799.725 164.657 801.018 167.191C802.312 169.699 804.12 171.626 806.443 172.972C808.766 174.292 811.485 174.952 814.599 174.952C816.685 174.952 818.572 174.661 820.261 174.081C821.951 173.474 823.416 172.589 824.657 171.428C825.897 170.266 826.834 168.828 827.468 167.112L840.851 168.617C840.006 172.154 838.396 175.242 836.02 177.882C833.671 180.495 830.662 182.528 826.993 183.979C823.324 185.405 819.126 186.118 814.401 186.118Z" fill="white"/>
<path d="M863.984 124.112L876.259 146.562L888.731 124.112H903.896L885.564 154.521L904.213 184.93H889.127L876.259 163.034L863.509 184.93H848.305L866.835 154.521L848.78 124.112H863.984Z" fill="white"/>
</g>
<defs>
<filter id="filter0_d_138_79" x="0.658691" y="0.729492" width="907.554" height="295.4" filterUnits="userSpaceOnUse" color-interpolation-filters="sRGB">
<feFlood flood-opacity="0" result="BackgroundImageFix"/>
<feColorMatrix in="SourceAlpha" type="matrix" values="0 0 0 0 0 0 0 0 0 0 0 0 0 0 0 0 0 0 127 0" result="hardAlpha"/>
<feOffset dy="4"/>
<feGaussianBlur stdDeviation="2"/>
<feComposite in2="hardAlpha" operator="out"/>
<feColorMatrix type="matrix" values="0 0 0 0 0 0 0 0 0 0 0 0 0 0 0 0 0 0 0.25 0"/>
<feBlend mode="normal" in2="BackgroundImageFix" result="effect1_dropShadow_138_79"/>
<feBlend mode="normal" in="SourceGraphic" in2="effect1_dropShadow_138_79" result="shape"/>
</filter>
<radialGradient id="paint0_radial_138_79" cx="0" cy="0" r="1" gradientUnits="userSpaceOnUse" gradientTransform="translate(148.232 144.43) rotate(135) scale(148.254 129.505)">
<stop offset="0.302885" stop-color="#CF00B3" stop-opacity="0"/>
<stop offset="1" stop-color="#5B00DA"/>
</radialGradient>
<radialGradient id="paint1_radial_138_79" cx="0" cy="0" r="1" gradientUnits="userSpaceOnUse" gradientTransform="translate(149.231 144.43) rotate(90) scale(357.722 401.918)">
<stop stop-color="#CF00B6"/>
<stop offset="1" stop-color="#5802D0"/>
</radialGradient>
</defs>
</svg>
